<svg width="25" height="25" viewBox="0 0 25 25" version="1.1" xmlns="http://www.w3.org/2000/svg" xmlns:xlink="http://www.w3.org/1999/xlink">
<title>edit</title>
<desc>Created using Figma</desc>
<g id="Canvas" transform="translate(-6629 -316)">
<g id="edit">
<g id="Group">
<g id="Group">
<g id="Vector">
<use xlink:href="#path0_fill" transform="translate(6629 316)" fill="#17BCD3"/>
</g>
</g>
</g>
</g>
</g>
<defs>
<path id="path0_fill" d="M 0.026427 18.75L -2.52028e-08 23.8924C -2.52028e-08 24.1825 0.105708 24.4726 0.317125 24.6835C 0.528541 24.8945 0.792812 25 1.08351 25L 6.21036 24.9736C 6.50106 24.9736 6.76533 24.8681 6.97674 24.6572L 24.6829 6.9884C 25.1057 6.56646 25.1057 5.8808 24.6829 5.43249L 19.6089 0.316456C 19.186 -0.105485 18.4989 -0.105485 18.0497 0.316456L 14.5085 3.87658L 0.343552 17.9852C 0.158562 18.1962 0.026427 18.4599 0.026427 18.75ZM 18.8425 2.63713L 22.4101 6.19726L 20.4017 8.20148L 16.834 4.64135L 18.8425 2.63713ZM 2.21987 19.2247L 15.2748 6.19726L 18.8425 9.75738L 5.78753 22.7584L 2.19345 22.7848L 2.21987 19.2247Z"/>
</defs>
</svg>
